<!-- frontend/src/assets/tea-icon.svg -->
<svg xmlns="http://www.w3.org/2000/svg" viewBox="0 0 64 64">
  <!-- 背景の円 -->
  <circle cx="32" cy="32" r="30" fill="#0D3B66"/>
  <!-- 茶碗 -->
  <g transform="translate(16,20)">
    <path d="M32 20c0 5.523-4.477 10-10 10H10C4.477 30 0 25.523 0 20V10h32v10z" fill="#F0E9D2"/>
    <path d="M32 10H0V8c0-4.418 3.582-8 8-8h16c4.418 0 8 3.582 8 8v2z" fill="#D62828"/>
    <!-- 茶碗の縁取り -->
    <path d="M0 10h32" stroke="#0D3B66" stroke-width="2"/>
    <!-- 茶碗の底 -->
    <rect x="12" y="30" width="8" height="4" fill="#0D3B66"/>
  </g>
  <!-- 湯気 -->
  <g stroke="#F0E9D2" stroke-width="2" stroke-linecap="round">
    <path d="M24 12c0-4 4-4 4-8s-4-4-4-8"/>
    <path d="M32 12c0-4 4-4 4-8s-4-4-4-8"/>
  </g>
</svg>
