<?xml version="1.0" encoding="UTF-8"?>
<!DOCTYPE svg PUBLIC "-//W3C//DTD SVG 1.1//EN" "http://www.w3.org/Graphics/SVG/1.1/DTD/svg11.dtd">
<svg xmlns="http://www.w3.org/2000/svg" version="1.1" width="509px" height="490px" style="shape-rendering:geometricPrecision; text-rendering:geometricPrecision; image-rendering:optimizeQuality; fill-rule:evenodd; clip-rule:evenodd" xmlns:xlink="http://www.w3.org/1999/xlink">
<g><path style="opacity:0.471" fill="#b3b3b3" d="M 47.5,186.5 C 47.1583,185.662 46.4916,185.328 45.5,185.5C 48.3863,183.154 51.7197,182.32 55.5,183C 52.9676,184.456 50.3009,185.623 47.5,186.5 Z"/></g>
<g><path style="opacity:0.267" fill="#c9c9c9" d="M 78.5,184.5 C 77.209,184.263 76.209,184.596 75.5,185.5C 73.4068,184.955 71.4068,184.122 69.5,183C 72.7715,182.424 75.7715,182.924 78.5,184.5 Z"/></g>
<g><path style="opacity:0.792" fill="#767676" d="M 45.5,185.5 C 46.4916,185.328 47.1583,185.662 47.5,186.5C 45.3805,188.4 43.0472,190.066 40.5,191.5C 40.6309,190.624 40.2975,189.957 39.5,189.5C 38.0603,190.952 36.3936,191.952 34.5,192.5C 37.3569,188.904 41.0236,186.571 45.5,185.5 Z"/></g>
<g><path style="opacity:0.914" fill="#909090" d="M 78.5,184.5 C 81.3311,185.079 83.6644,186.412 85.5,188.5C 84.4168,188.461 83.4168,188.127 82.5,187.5C 81.537,187.97 81.537,188.637 82.5,189.5C 79.9959,188.416 77.6626,187.083 75.5,185.5C 76.209,184.596 77.209,184.263 78.5,184.5 Z"/></g>
<g><path style="opacity:0.012" fill="#c2c2c2" d="M 85.5,188.5 C 87.4044,188.738 88.7377,189.738 89.5,191.5C 87.5956,191.262 86.2623,190.262 85.5,188.5 Z"/></g>
<g><path style="opacity:0.408" fill="#a9a9a9" d="M 89.5,191.5 C 91.7727,191.957 93.106,193.29 93.5,195.5C 91.6593,194.598 90.326,193.264 89.5,191.5 Z"/></g>
<g><path style="opacity:0.024" fill="#d0d0d0" d="M 93.5,195.5 C 95.5,195.5 96.5,196.5 96.5,198.5C 95.1667,197.833 94.1667,196.833 93.5,195.5 Z"/></g>
<g><path style="opacity:0.796" fill="#8a8a8a" d="M 34.5,192.5 C 32.2119,196.456 29.2119,199.789 25.5,202.5C 27.0872,199.732 28.9205,197.065 31,194.5C 31.8159,193.177 32.9826,192.511 34.5,192.5 Z"/></g>
<g><path style="opacity:1" fill="#080808" d="M 85.5,188.5 C 86.2623,190.262 87.5956,191.262 89.5,191.5C 90.326,193.264 91.6593,194.598 93.5,195.5C 94.1667,196.833 95.1667,197.833 96.5,198.5C 96.7376,200.404 97.7376,201.738 99.5,202.5C 99.427,204.027 100.094,205.027 101.5,205.5C 102.338,205.842 102.672,206.508 102.5,207.5C 104.827,213.989 106.661,220.655 108,227.5C 108.478,235.197 108.478,242.864 108,250.5C 110.372,248.297 112.539,245.963 114.5,243.5C 116.966,242.702 118.966,241.369 120.5,239.5C 120.842,238.662 121.508,238.328 122.5,238.5C 128.33,236.89 133.997,234.89 139.5,232.5C 166.129,227.057 191.463,230.391 215.5,242.5C 216.262,244.262 217.596,245.262 219.5,245.5C 220.08,247.749 221.413,249.415 223.5,250.5C 223.557,251.609 223.89,252.609 224.5,253.5C 224.98,257.594 224.98,261.594 224.5,265.5C 224.167,266.833 223.833,268.167 223.5,269.5C 221.738,270.262 220.738,271.596 220.5,273.5C 218.251,274.08 216.585,275.413 215.5,277.5C 213.326,277.75 211.659,278.75 210.5,280.5C 208.847,280.66 207.514,281.326 206.5,282.5C 206.158,283.338 205.492,283.672 204.5,283.5C 202.5,283.833 200.5,284.167 198.5,284.5C 197.494,284.062 197.494,283.396 198.5,282.5C 204.077,281.22 207.744,277.887 209.5,272.5C 210.117,272.389 210.617,272.056 211,271.5C 212.5,264.17 210,258.837 203.5,255.5C 203.027,254.094 202.027,253.427 200.5,253.5C 199.508,253.672 198.842,253.338 198.5,252.5C 197.817,250.824 196.483,250.157 194.5,250.5C 194.167,250.5 193.833,250.5 193.5,250.5C 191.044,248.132 188.044,247.132 184.5,247.5C 182.05,247.702 179.717,247.369 177.5,246.5C 176.391,245.71 175.058,245.21 173.5,245C 167.5,244.333 161.5,244.333 155.5,245C 151.11,245.259 147.11,246.426 143.5,248.5C 136.901,249.301 131.235,251.967 126.5,256.5C 126.167,257.5 125.5,258.167 124.5,258.5C 122.827,259.343 121.66,260.676 121,262.5C 120.195,265.696 120.362,268.696 121.5,271.5C 122.674,272.514 123.34,273.847 123.5,275.5C 123.5,277.5 124.5,278.5 126.5,278.5C 127.802,280.822 129.802,282.155 132.5,282.5C 133.492,282.328 134.158,282.662 134.5,283.5C 134.918,284.222 135.584,284.722 136.5,285C 134.203,285.018 131.869,284.851 129.5,284.5C 127.824,282.166 125.491,281.166 122.5,281.5C 120.847,281.34 119.514,280.674 118.5,279.5C 117.738,277.738 116.404,276.738 114.5,276.5C 112.452,273.785 110.118,271.452 107.5,269.5C 106.326,268.486 105.66,267.153 105.5,265.5C 105.785,263.712 105.452,262.045 104.5,260.5C 102.889,261.32 102.222,262.654 102.5,264.5C 100.75,265.659 99.7497,267.326 99.5,269.5C 97.7376,270.262 96.7376,271.596 96.5,273.5C 96.5,274.167 96.1667,274.5 95.5,274.5C 94.1667,275.167 93.1667,276.167 92.5,277.5C 91.5,277.833 90.8333,278.5 90.5,279.5C 90.5,280.167 90.1667,280.5 89.5,280.5C 87.5956,280.738 86.2623,281.738 85.5,283.5C 81.6456,284.93 77.9789,286.597 74.5,288.5C 67.8627,289.276 61.1961,289.609 54.5,289.5C 52.4855,288.076 50.1522,287.41 47.5,287.5C 45.9674,285.755 43.9674,284.755 41.5,284.5C 41.0269,283.094 40.0269,282.427 38.5,282.5C 37.0892,280.086 35.0892,278.419 32.5,277.5C 32.1436,275.81 31.1436,274.81 29.5,274.5C 23.2474,265.664 18.914,255.997 16.5,245.5C 16.5,238.833 16.5,232.167 16.5,225.5C 18.543,220.366 20.2097,215.033 21.5,209.5C 23.9305,207.954 25.2639,205.621 25.5,202.5C 29.2119,199.789 32.2119,196.456 34.5,192.5C 36.3936,191.952 38.0603,190.952 39.5,189.5C 40.2975,189.957 40.6309,190.624 40.5,191.5C 38.823,193.54 37.1563,195.54 35.5,197.5C 33.7497,198.659 32.7497,200.326 32.5,202.5C 27.8196,210.817 26.3196,219.817 28,229.5C 28.21,231.058 28.71,232.391 29.5,233.5C 31.1472,237.424 32.8139,241.424 34.5,245.5C 34.427,247.027 35.0937,248.027 36.5,248.5C 38.1667,252.167 40.8333,254.833 44.5,256.5C 45.6594,258.25 47.326,259.25 49.5,259.5C 50.842,260.793 52.5087,261.626 54.5,262C 59.3522,262.815 64.0189,262.648 68.5,261.5C 72.081,261.862 75.081,260.862 77.5,258.5C 79.0269,258.573 80.0269,257.906 80.5,256.5C 84.1667,254.833 86.8333,252.167 88.5,248.5C 91.1119,246.948 92.4452,244.614 92.5,241.5C 94.1765,240.817 94.8432,239.483 94.5,237.5C 94.5,237.167 94.5,236.833 94.5,236.5C 96.0395,234.162 96.7062,231.495 96.5,228.5C 99.1576,216.464 96.491,205.797 88.5,196.5C 87.6618,196.158 87.3284,195.492 87.5,194.5C 87.1667,193.5 86.5,192.833 85.5,192.5C 84.1667,191.833 83.1667,190.833 82.5,189.5C 81.537,188.637 81.537,187.97 82.5,187.5C 83.4168,188.127 84.4168,188.461 85.5,188.5 Z"/></g>
<g><path style="opacity:0.016" fill="#d7d7d7" d="M 85.5,192.5 C 86.5,192.833 87.1667,193.5 87.5,194.5C 86.1667,194.5 85.5,193.833 85.5,192.5 Z"/></g>
<g><path style="opacity:0.247" fill="#b1b1b1" d="M 35.5,197.5 C 35.2503,199.674 34.2503,201.341 32.5,202.5C 32.7497,200.326 33.7497,198.659 35.5,197.5 Z"/></g>
<g><path style="opacity:0.604" fill="#a1a1a1" d="M 96.5,198.5 C 98.2624,199.262 99.2624,200.596 99.5,202.5C 97.7376,201.738 96.7376,200.404 96.5,198.5 Z"/></g>
<g><path style="opacity:0.153" fill="#b3b3b3" d="M 88.5,196.5 C 96.491,205.797 99.1576,216.464 96.5,228.5C 97.2575,216.948 94.5908,206.281 88.5,196.5 Z"/></g>
<g><path style="opacity:0.247" fill="#bfbfbf" d="M 99.5,202.5 C 100.906,202.973 101.573,203.973 101.5,205.5C 100.094,205.027 99.427,204.027 99.5,202.5 Z"/></g>
<g><path style="opacity:0.855" fill="#7f7f7f" d="M 25.5,202.5 C 25.2639,205.621 23.9305,207.954 21.5,209.5C 22.0787,206.669 23.412,204.336 25.5,202.5 Z"/></g>
<g><path style="opacity:0.949" fill="#969696" d="M 102.5,207.5 C 105.718,212.303 107.885,217.636 109,223.5C 109.333,231.167 109.667,238.833 110,246.5C 111.129,244.859 112.629,243.859 114.5,243.5C 112.539,245.963 110.372,248.297 108,250.5C 108.478,242.864 108.478,235.197 108,227.5C 106.661,220.655 104.827,213.989 102.5,207.5 Z"/></g>
<g><path style="opacity:0.588" fill="#979797" d="M 21.5,209.5 C 20.2097,215.033 18.543,220.366 16.5,225.5C 16.6385,219.591 18.3052,214.257 21.5,209.5 Z"/></g>
<g><path style="opacity:0.406" fill="#9e9e9e" d="M 32.5,202.5 C 28.6897,212.556 27.6897,222.89 29.5,233.5C 28.71,232.391 28.21,231.058 28,229.5C 26.3196,219.817 27.8196,210.817 32.5,202.5 Z"/></g>
<g><path style="opacity:0.39" fill="#a1a1a1" d="M 460.5,244.5 C 440.379,233.042 418.713,228.542 395.5,231C 388.766,231.851 382.099,233.018 375.5,234.5C 378.859,232.781 382.525,231.614 386.5,231C 411.261,226.28 434.928,229.613 457.5,241C 459.063,241.759 460.063,242.926 460.5,244.5 Z"/></g>
<g><path style="opacity:0.188" fill="#d4d4d4" d="M 307.5,231.5 C 305.901,231.232 304.568,231.566 303.5,232.5C 301.199,231.94 298.866,231.44 296.5,231C 300.211,229.616 303.878,229.782 307.5,231.5 Z"/></g>
<g><path style="opacity:0.361" fill="#a2a2a2" d="M 215.5,242.5 C 191.463,230.391 166.129,227.057 139.5,232.5C 163.305,227.052 186.638,228.885 209.5,238C 211.747,239.277 213.747,240.777 215.5,242.5 Z"/></g>
<g><path style="opacity:1" fill="#0d0d0d" d="M 460.5,244.5 C 461.833,246.5 463.5,248.167 465.5,249.5C 465.427,251.027 466.094,252.027 467.5,252.5C 467.999,256.49 468.499,260.49 469,264.5C 469.278,265.416 469.778,266.082 470.5,266.5C 471.404,267.209 471.737,268.209 471.5,269.5C 471.427,271.027 472.094,272.027 473.5,272.5C 473.738,274.404 474.738,275.738 476.5,276.5C 476.973,277.906 477.973,278.573 479.5,278.5C 480.872,279.512 482.205,280.512 483.5,281.5C 483.973,282.906 484.973,283.573 486.5,283.5C 487.492,283.328 488.158,283.662 488.5,284.5C 491.865,286.462 495.532,287.962 499.5,289C 497.19,289.497 494.857,289.663 492.5,289.5C 489.495,287.723 486.162,286.723 482.5,286.5C 481.209,286.737 480.209,286.404 479.5,285.5C 479.027,284.094 478.027,283.427 476.5,283.5C 476.027,282.094 475.027,281.427 473.5,281.5C 472.089,279.086 470.089,277.419 467.5,276.5C 466.902,273.179 465.235,272.179 462.5,273.5C 461.5,273.833 460.833,274.5 460.5,275.5C 458.011,274.255 456.678,275.255 456.5,278.5C 451.745,280.625 446.912,282.625 442,284.5C 440.316,284.317 440.15,283.65 441.5,282.5C 444.674,281.99 447.008,280.323 448.5,277.5C 451.926,273.494 453.259,268.827 452.5,263.5C 452.25,261.326 451.25,259.659 449.5,258.5C 448.415,256.413 446.749,255.08 444.5,254.5C 443.508,254.672 442.842,254.338 442.5,253.5C 441.817,251.824 440.483,251.157 438.5,251.5C 435.079,248.804 431.079,247.47 426.5,247.5C 426.167,247.5 425.833,247.5 425.5,247.5C 425.082,246.778 424.416,246.278 423.5,246C 420.854,245.503 418.187,245.336 415.5,245.5C 409.681,244.347 403.681,244.181 397.5,245C 394.478,245.098 391.811,245.932 389.5,247.5C 384.164,247.61 379.497,249.276 375.5,252.5C 375.158,253.338 374.492,253.672 373.5,253.5C 371.973,253.427 370.973,254.094 370.5,255.5C 370.167,256.5 369.5,257.167 368.5,257.5C 366.5,257.5 365.5,258.5 365.5,260.5C 363.172,262.166 362.172,264.499 362.5,267.5C 362.667,268.833 362.833,270.167 363,271.5C 363.383,272.056 363.883,272.389 364.5,272.5C 365.338,272.842 365.672,273.508 365.5,274.5C 366.167,277.167 367.833,278.833 370.5,279.5C 371.985,282.083 374.318,283.416 377.5,283.5C 378.66,285.203 377.993,285.869 375.5,285.5C 373.316,283.415 370.649,282.415 367.5,282.5C 365.181,282.008 363.181,281.008 361.5,279.5C 361.027,278.094 360.027,277.427 358.5,277.5C 356.761,274.757 354.427,272.757 351.5,271.5C 350.599,270.71 349.932,269.71 349.5,268.5C 349.435,266.304 348.768,264.304 347.5,262.5C 346.571,263.689 346.238,265.022 346.5,266.5C 346.672,267.492 346.338,268.158 345.5,268.5C 343.738,269.262 342.738,270.596 342.5,272.5C 342.167,273.5 341.5,274.167 340.5,274.5C 338.473,274.338 336.473,274.505 334.5,275C 336.935,275.075 337.602,275.908 336.5,277.5C 333.996,278.584 331.663,279.917 329.5,281.5C 329.158,282.338 328.492,282.672 327.5,282.5C 324.525,282.713 321.858,283.713 319.5,285.5C 325.928,287.642 332.262,289.975 338.5,292.5C 338.973,293.906 339.973,294.573 341.5,294.5C 343.5,297.167 345.833,299.5 348.5,301.5C 348.833,304.167 349.167,306.833 349.5,309.5C 348.85,309.804 348.183,310.137 347.5,310.5C 346.935,308.456 345.935,306.79 344.5,305.5C 344.573,303.973 343.906,302.973 342.5,302.5C 341.738,300.738 340.404,299.738 338.5,299.5C 336.847,299.34 335.514,298.674 334.5,297.5C 332.824,295.166 330.491,294.166 327.5,294.5C 309.686,291.129 291.686,289.629 273.5,290C 268.924,289.728 264.591,288.895 260.5,287.5C 257.548,285.59 254.214,284.59 250.5,284.5C 248.824,282.166 246.491,281.166 243.5,281.5C 242.508,281.672 241.842,281.338 241.5,280.5C 241.027,279.094 240.027,278.427 238.5,278.5C 237.738,276.738 236.404,275.738 234.5,275.5C 234.167,274.5 233.5,273.833 232.5,273.5C 232.167,272.5 231.5,271.833 230.5,271.5C 229.833,271.5 229.5,271.167 229.5,270.5C 229.123,268.742 228.456,267.075 227.5,265.5C 226.743,264.227 226.077,264.227 225.5,265.5C 225.167,265.5 224.833,265.5 224.5,265.5C 224.98,261.594 224.98,257.594 224.5,253.5C 224.833,253.5 225.167,253.5 225.5,253.5C 225.5,253.833 225.5,254.167 225.5,254.5C 225.369,255.239 225.536,255.906 226,256.5C 227.372,255.09 228.205,253.423 228.5,251.5C 228.328,250.508 228.662,249.842 229.5,249.5C 230.5,249.167 231.167,248.5 231.5,247.5C 232.833,246.833 233.833,245.833 234.5,244.5C 236.404,244.262 237.738,243.262 238.5,241.5C 238.842,240.662 239.508,240.328 240.5,240.5C 242.027,240.573 243.027,239.906 243.5,238.5C 246.491,238.834 248.824,237.834 250.5,235.5C 252.869,235.149 255.203,234.982 257.5,235C 256.584,235.278 255.918,235.778 255.5,236.5C 255.158,237.338 254.492,237.672 253.5,237.5C 251.973,237.427 250.973,238.094 250.5,239.5C 248.596,239.738 247.262,240.738 246.5,242.5C 244.738,243.262 243.738,244.596 243.5,246.5C 242.883,246.611 242.383,246.944 242,247.5C 241.199,250.367 241.366,253.034 242.5,255.5C 242.5,255.833 242.5,256.167 242.5,256.5C 242.427,258.027 243.094,259.027 244.5,259.5C 245.5,262.5 247.5,264.5 250.5,265.5C 251.492,265.328 252.158,265.662 252.5,266.5C 253.911,268.539 255.911,269.539 258.5,269.5C 262.713,272.07 267.38,273.57 272.5,274C 281.676,274.824 290.676,274.657 299.5,273.5C 299.833,273.5 300.167,273.5 300.5,273.5C 303.829,273.785 306.829,273.118 309.5,271.5C 313.554,271.493 316.887,270.16 319.5,267.5C 325.127,266.202 328.794,262.868 330.5,257.5C 330.328,256.508 330.662,255.842 331.5,255.5C 333.174,248.179 330.507,242.846 323.5,239.5C 323.027,238.094 322.027,237.427 320.5,237.5C 319.209,237.737 318.209,237.404 317.5,236.5C 316.34,234.797 317.007,234.131 319.5,234.5C 321.214,235.738 323.214,236.405 325.5,236.5C 327.849,238.341 330.515,239.674 333.5,240.5C 334.492,240.328 335.158,240.662 335.5,241.5C 336.262,243.262 337.596,244.262 339.5,244.5C 340.5,244.833 341.167,245.5 341.5,246.5C 342.08,248.749 343.413,250.415 345.5,251.5C 346.338,251.842 346.672,252.508 346.5,253.5C 347.167,256.167 347.833,256.167 348.5,253.5C 348.328,252.508 348.662,251.842 349.5,251.5C 351.262,250.738 352.262,249.404 352.5,247.5C 355.427,246.243 357.761,244.243 359.5,241.5C 359.842,240.662 360.508,240.328 361.5,240.5C 363.027,240.573 364.027,239.906 364.5,238.5C 366.698,238.88 368.365,238.213 369.5,236.5C 371.898,236.741 373.898,236.074 375.5,234.5C 382.099,233.018 388.766,231.851 395.5,231C 418.713,228.542 440.379,233.042 460.5,244.5 Z"/></g>
<g><path style="opacity:0.412" fill="#b7b7b7" d="M 258.5,235.5 C 258.918,234.778 259.584,234.278 260.5,234C 259.207,233.51 257.873,233.343 256.5,233.5C 261.787,231.804 267.287,230.471 273,229.5C 274.5,230 276,230.5 277.5,231C 271.087,232.315 264.753,233.815 258.5,235.5 Z"/></g>
<g><path style="opacity:0.486" fill="#9b9b9b" d="M 303.5,232.5 C 304.568,231.566 305.901,231.232 307.5,231.5C 311.874,231.502 315.874,232.502 319.5,234.5C 317.007,234.131 316.34,234.797 317.5,236.5C 313.009,234.59 308.343,233.257 303.5,232.5 Z"/></g>
<g><path style="opacity:0.522" fill="#9c9c9c" d="M 16.5,225.5 C 16.5,232.167 16.5,238.833 16.5,245.5C 15.764,242.305 15.0973,238.971 14.5,235.5C 15.0973,232.029 15.764,228.695 16.5,225.5 Z"/></g>
<g><path style="opacity:0.047" fill="#d4d4d4" d="M 96.5,228.5 C 96.7062,231.495 96.0395,234.162 94.5,236.5C 94.5651,233.572 95.2318,230.905 96.5,228.5 Z"/></g>
<g><path style="opacity:0.686" fill="#858585" d="M 139.5,232.5 C 133.997,234.89 128.33,236.89 122.5,238.5C 127.591,235.135 133.258,233.135 139.5,232.5 Z"/></g>
<g><path style="opacity:0.671" fill="#808080" d="M 256.5,233.5 C 257.873,233.343 259.207,233.51 260.5,234C 259.584,234.278 258.918,234.778 258.5,235.5C 257.791,236.404 256.791,236.737 255.5,236.5C 255.918,235.778 256.584,235.278 257.5,235C 255.203,234.982 252.869,235.149 250.5,235.5C 252.214,234.262 254.214,233.595 256.5,233.5 Z"/></g>
<g><path style="opacity:0.008" fill="#c2c2c2" d="M 319.5,234.5 C 321.898,234.259 323.898,234.926 325.5,236.5C 323.214,236.405 321.214,235.738 319.5,234.5 Z"/></g>
<g><path style="opacity:0.776" fill="#7d7d7d" d="M 375.5,234.5 C 373.898,236.074 371.898,236.741 369.5,236.5C 371.102,234.926 373.102,234.259 375.5,234.5 Z"/></g>
<g><path style="opacity:0.855" fill="#6f6f6f" d="M 250.5,235.5 C 248.824,237.834 246.491,238.834 243.5,238.5C 245.509,236.935 247.843,235.935 250.5,235.5 Z"/></g>
<g><path style="opacity:0.275" fill="#b0b0b0" d="M 325.5,236.5 C 328.754,236.794 331.421,238.127 333.5,240.5C 330.515,239.674 327.849,238.341 325.5,236.5 Z"/></g>
<g><path style="opacity:0.851" fill="#808080" d="M 369.5,236.5 C 368.365,238.213 366.698,238.88 364.5,238.5C 365.78,237.069 367.447,236.402 369.5,236.5 Z"/></g>
<g><path style="opacity:0.031" fill="#c0c0c0" d="M 253.5,237.5 C 253.027,238.906 252.027,239.573 250.5,239.5C 250.973,238.094 251.973,237.427 253.5,237.5 Z"/></g>
<g><path style="opacity:0.396" fill="#9a9a9a" d="M 320.5,237.5 C 322.027,237.427 323.027,238.094 323.5,239.5C 321.973,239.573 320.973,238.906 320.5,237.5 Z"/></g>
<g><path style="opacity:0.573" fill="#949494" d="M 243.5,238.5 C 243.027,239.906 242.027,240.573 240.5,240.5C 240.973,239.094 241.973,238.427 243.5,238.5 Z"/></g>
<g><path style="opacity:0.529" fill="#a5a5a5" d="M 364.5,238.5 C 364.027,239.906 363.027,240.573 361.5,240.5C 361.973,239.094 362.973,238.427 364.5,238.5 Z"/></g>
<g><path style="opacity:0.898" fill="#717171" d="M 94.5,237.5 C 94.8432,239.483 94.1765,240.817 92.5,241.5C 92.6596,239.847 93.3263,238.514 94.5,237.5 Z"/></g>
<g><path style="opacity:0.141" fill="#bcbcbc" d="M 250.5,239.5 C 249.738,241.262 248.404,242.262 246.5,242.5C 247.262,240.738 248.596,239.738 250.5,239.5 Z"/></g>
<g><path style="opacity:0.537" fill="#878787" d="M 120.5,239.5 C 118.966,241.369 116.966,242.702 114.5,243.5C 115.802,241.178 117.802,239.845 120.5,239.5 Z"/></g>
<g><path style="opacity:0.42" fill="#a6a6a6" d="M 323.5,239.5 C 330.507,242.846 333.174,248.179 331.5,255.5C 331.662,253.473 331.495,251.473 331,249.5C 329.053,245.724 326.553,242.39 323.5,239.5 Z"/></g>
<g><path style="opacity:0.059" fill="#b7b7b7" d="M 215.5,242.5 C 217.404,242.738 218.738,243.738 219.5,245.5C 217.596,245.262 216.262,244.262 215.5,242.5 Z"/></g>
<g><path style="opacity:0.541" fill="#939393" d="M 238.5,241.5 C 237.738,243.262 236.404,244.262 234.5,244.5C 235.262,242.738 236.596,241.738 238.5,241.5 Z"/></g>
<g><path style="opacity:0.102" fill="#bdbdbd" d="M 335.5,241.5 C 337.404,241.738 338.738,242.738 339.5,244.5C 337.596,244.262 336.262,243.262 335.5,241.5 Z"/></g>
<g><path style="opacity:0.024" fill="#c8c8c8" d="M 246.5,242.5 C 246.262,244.404 245.262,245.738 243.5,246.5C 243.738,244.596 244.738,243.262 246.5,242.5 Z"/></g>
<g><path style="opacity:0.31" fill="#adadad" d="M 92.5,241.5 C 92.4452,244.614 91.1119,246.948 88.5,248.5C 89.5839,245.996 90.9172,243.663 92.5,241.5 Z"/></g>
<g><path style="opacity:0.043" fill="#c3c3c3" d="M 460.5,244.5 C 463.167,245.167 464.833,246.833 465.5,249.5C 463.5,248.167 461.833,246.5 460.5,244.5 Z"/></g>
<g><path style="opacity:0.263" fill="#8e8e8e" d="M 415.5,245.5 C 414.167,245.5 412.833,245.5 411.5,245.5C 404.159,246.093 396.826,246.76 389.5,247.5C 391.811,245.932 394.478,245.098 397.5,245C 403.681,244.181 409.681,244.347 415.5,245.5 Z"/></g>
<g><path style="opacity:0.294" fill="#999999" d="M 177.5,246.5 C 166.087,245.44 154.753,246.107 143.5,248.5C 147.11,246.426 151.11,245.259 155.5,245C 161.5,244.333 167.5,244.333 173.5,245C 175.058,245.21 176.391,245.71 177.5,246.5 Z"/></g>
<g><path style="opacity:0.706" fill="#8c8c8c" d="M 219.5,245.5 C 221.587,246.585 222.92,248.251 223.5,250.5C 221.413,249.415 220.08,247.749 219.5,245.5 Z"/></g>
<g><path style="opacity:0.408" fill="#b2b2b2" d="M 234.5,244.5 C 233.833,245.833 232.833,246.833 231.5,247.5C 231.5,245.5 232.5,244.5 234.5,244.5 Z"/></g>
<g><path style="opacity:0.741" fill="#7f7f7f" d="M 359.5,241.5 C 357.761,244.243 355.427,246.243 352.5,247.5C 354.239,244.757 356.573,242.757 359.5,241.5 Z"/></g>
<g><path style="opacity:0.306" fill="#b0b0b0" d="M 411.5,245.5 C 412.833,245.5 414.167,245.5 415.5,245.5C 418.187,245.336 420.854,245.503 423.5,246C 424.416,246.278 425.082,246.778 425.5,247.5C 420.662,247.089 415.995,246.422 411.5,245.5 Z"/></g>
<g><path style="opacity:0.349" fill="#adadad" d="M 34.5,245.5 C 35.9063,245.973 36.573,246.973 36.5,248.5C 35.0937,248.027 34.427,247.027 34.5,245.5 Z"/></g>
<g><path style="opacity:0.788" fill="#858585" d="M 341.5,246.5 C 343.587,247.585 344.92,249.251 345.5,251.5C 343.413,250.415 342.08,248.749 341.5,246.5 Z"/></g>
<g><path style="opacity:0.639" fill="#9d9d9d" d="M 426.5,247.5 C 431.079,247.47 435.079,248.804 438.5,251.5C 434.341,250.336 430.341,249.003 426.5,247.5 Z"/></g>
<g><path style="opacity:0.463" fill="#a4a4a4" d="M 184.5,247.5 C 188.044,247.132 191.044,248.132 193.5,250.5C 190.215,250.072 187.215,249.072 184.5,247.5 Z"/></g>
<g><path style="opacity:0.31" fill="#bdbdbd" d="M 231.5,247.5 C 231.167,248.5 230.5,249.167 229.5,249.5C 229.5,248.167 230.167,247.5 231.5,247.5 Z"/></g>
<g><path style="opacity:0.69" fill="#929292" d="M 352.5,247.5 C 352.262,249.404 351.262,250.738 349.5,251.5C 349.738,249.596 350.738,248.262 352.5,247.5 Z"/></g>
<g><path style="opacity:0.133" fill="#b1b1b1" d="M 389.5,247.5 C 385.023,249.461 380.356,251.127 375.5,252.5C 379.497,249.276 384.164,247.61 389.5,247.5 Z"/></g>
<g><path style="opacity:0.627" fill="#a0a0a0" d="M 36.5,248.5 C 39.5,250.833 42.1667,253.5 44.5,256.5C 40.8333,254.833 38.1667,252.167 36.5,248.5 Z"/></g>
<g><path style="opacity:0.239" fill="#b8b8b8" d="M 143.5,248.5 C 137.751,250.873 132.084,253.54 126.5,256.5C 131.235,251.967 136.901,249.301 143.5,248.5 Z"/></g>
<g><path style="opacity:0.949" fill="#5c5c5c" d="M 194.5,250.5 C 196.483,250.157 197.817,250.824 198.5,252.5C 196.847,252.34 195.514,251.674 194.5,250.5 Z"/></g>
<g><path style="opacity:0.159" fill="#b5b5b5" d="M 243.5,246.5 C 242.841,249.455 242.508,252.455 242.5,255.5C 241.366,253.034 241.199,250.367 242,247.5C 242.383,246.944 242.883,246.611 243.5,246.5 Z"/></g>
<g><path style="opacity:0.855" fill="#7d7d7d" d="M 438.5,251.5 C 440.483,251.157 441.817,251.824 442.5,253.5C 440.847,253.34 439.514,252.674 438.5,251.5 Z"/></g>
<g><path style="opacity:0.318" fill="#a9a9a9" d="M 465.5,249.5 C 466.906,249.973 467.573,250.973 467.5,252.5C 466.094,252.027 465.427,251.027 465.5,249.5 Z"/></g>
<g><path style="opacity:0.478" fill="#9f9f9f" d="M 88.5,248.5 C 86.8333,252.167 84.1667,254.833 80.5,256.5C 82.8333,253.5 85.5,250.833 88.5,248.5 Z"/></g>
<g><path style="opacity:0.302" fill="#a8a8a8" d="M 223.5,250.5 C 224.906,250.973 225.573,251.973 225.5,253.5C 225.167,253.5 224.833,253.5 224.5,253.5C 223.89,252.609 223.557,251.609 223.5,250.5 Z"/></g>
<g><path style="opacity:0.235" fill="#aaaaaa" d="M 228.5,251.5 C 228.205,253.423 227.372,255.09 226,256.5C 225.536,255.906 225.369,255.239 225.5,254.5C 226.272,253.306 227.272,252.306 228.5,251.5 Z"/></g>
<g><path style="opacity:0.431" fill="#9b9b9b" d="M 200.5,253.5 C 202.027,253.427 203.027,254.094 203.5,255.5C 201.973,255.573 200.973,254.906 200.5,253.5 Z"/></g>
<g><path style="opacity:0.263" fill="#bdbdbd" d="M 346.5,253.5 C 347.167,253.5 347.833,253.5 348.5,253.5C 347.833,256.167 347.167,256.167 346.5,253.5 Z"/></g>
<g><path style="opacity:0.024" fill="#d0d0d0" d="M 373.5,253.5 C 373.027,254.906 372.027,255.573 370.5,255.5C 370.973,254.094 371.973,253.427 373.5,253.5 Z"/></g>
<g><path style="opacity:0.69" fill="#8d8d8d" d="M 203.5,255.5 C 210,258.837 212.5,264.17 211,271.5C 210.617,272.056 210.117,272.389 209.5,272.5C 210.778,269.136 210.612,265.803 209,262.5C 207.334,260.004 205.5,257.671 203.5,255.5 Z"/></g>
<g><path style="opacity:0.424" fill="#acacac" d="M 444.5,254.5 C 446.749,255.08 448.415,256.413 449.5,258.5C 447.251,257.92 445.585,256.587 444.5,254.5 Z"/></g>
<g><path style="opacity:0.298" fill="#acacac" d="M 44.5,256.5 C 46.674,256.75 48.3406,257.75 49.5,259.5C 47.326,259.25 45.6594,258.25 44.5,256.5 Z"/></g>
<g><path style="opacity:0.604" fill="#909090" d="M 80.5,256.5 C 80.0269,257.906 79.0269,258.573 77.5,258.5C 77.9731,257.094 78.9731,256.427 80.5,256.5 Z"/></g>
<g><path style="opacity:0.22" fill="#c2c2c2" d="M 242.5,256.5 C 243.906,256.973 244.573,257.973 244.5,259.5C 243.094,259.027 242.427,258.027 242.5,256.5 Z"/></g>
<g><path style="opacity:0.384" fill="#9c9c9c" d="M 467.5,252.5 C 469.344,256.862 470.344,261.529 470.5,266.5C 469.778,266.082 469.278,265.416 469,264.5C 468.499,260.49 467.999,256.49 467.5,252.5 Z"/></g>
<g><path style="opacity:0.22" fill="#acacac" d="M 368.5,257.5 C 367.833,258.833 366.833,259.833 365.5,260.5C 365.5,258.5 366.5,257.5 368.5,257.5 Z"/></g>
<g><path style="opacity:0.031" fill="#bebebe" d="M 449.5,258.5 C 451.25,259.659 452.25,261.326 452.5,263.5C 450.75,262.341 449.75,260.674 449.5,258.5 Z"/></g>
<g><path style="opacity:0.631" fill="#999999" d="M 77.5,258.5 C 75.081,260.862 72.081,261.862 68.5,261.5C 71.341,260.331 74.341,259.331 77.5,258.5 Z"/></g>
<g><path style="opacity:0.475" fill="#acacac" d="M 244.5,259.5 C 246.833,261.167 248.833,263.167 250.5,265.5C 247.5,264.5 245.5,262.5 244.5,259.5 Z"/></g>
<g><path style="opacity:0.584" fill="#999999" d="M 330.5,257.5 C 328.794,262.868 325.127,266.202 319.5,267.5C 323.791,264.877 327.457,261.544 330.5,257.5 Z"/></g>
<g><path style="opacity:0.076" fill="#c0c0c0" d="M 49.5,259.5 C 55.7172,261.102 62.0506,261.768 68.5,261.5C 64.0189,262.648 59.3522,262.815 54.5,262C 52.5087,261.626 50.842,260.793 49.5,259.5 Z"/></g>
<g><path style="opacity:0.408" fill="#a5a5a5" d="M 105.5,265.5 C 104.732,264.737 104.232,263.737 104,262.5C 103.722,263.416 103.222,264.082 102.5,264.5C 102.222,262.654 102.889,261.32 104.5,260.5C 105.452,262.045 105.785,263.712 105.5,265.5 Z"/></g>
<g><path style="opacity:0.349" fill="#a5a5a5" d="M 16.5,245.5 C 18.914,255.997 23.2474,265.664 29.5,274.5C 21.6652,266.49 17.3318,256.823 16.5,245.5 Z"/></g>
<g><path style="opacity:0.306" fill="#bababa" d="M 124.5,258.5 C 121.963,262.4 120.963,266.734 121.5,271.5C 120.362,268.696 120.195,265.696 121,262.5C 121.66,260.676 122.827,259.343 124.5,258.5 Z"/></g>
<g><path style="opacity:0.471" fill="#adadad" d="M 225.5,265.5 C 226.077,264.227 226.743,264.227 227.5,265.5C 228.456,267.075 229.123,268.742 229.5,270.5C 227.926,269.016 226.593,267.349 225.5,265.5 Z"/></g>
<g><path style="opacity:0.067" fill="#a7a7a7" d="M 349.5,268.5 C 348.778,267.449 347.778,266.782 346.5,266.5C 346.238,265.022 346.571,263.689 347.5,262.5C 348.768,264.304 349.435,266.304 349.5,268.5 Z"/></g>
<g><path style="opacity:0.243" fill="#b8b8b8" d="M 102.5,264.5 C 102.25,266.674 101.25,268.341 99.5,269.5C 99.7497,267.326 100.75,265.659 102.5,264.5 Z"/></g>
<g><path style="opacity:0.286" fill="#9f9f9f" d="M 365.5,260.5 C 363.412,264.359 363.079,268.359 364.5,272.5C 363.883,272.389 363.383,272.056 363,271.5C 362.833,270.167 362.667,268.833 362.5,267.5C 362.172,264.499 363.172,262.166 365.5,260.5 Z"/></g>
<g><path style="opacity:0.255" fill="#b0b0b0" d="M 252.5,266.5 C 254.819,266.992 256.819,267.992 258.5,269.5C 255.911,269.539 253.911,268.539 252.5,266.5 Z"/></g>
<g><path style="opacity:0.2" fill="#adadad" d="M 224.5,265.5 C 224.833,265.5 225.167,265.5 225.5,265.5C 225.771,267.38 225.104,268.713 223.5,269.5C 223.833,268.167 224.167,266.833 224.5,265.5 Z"/></g>
<g><path style="opacity:0.894" fill="#7e7e7e" d="M 319.5,267.5 C 316.887,270.16 313.554,271.493 309.5,271.5C 312.518,269.6 315.851,268.267 319.5,267.5 Z"/></g>
<g><path style="opacity:0.388" fill="#ababab" d="M 258.5,269.5 C 271.901,273.108 285.567,274.441 299.5,273.5C 290.676,274.657 281.676,274.824 272.5,274C 267.38,273.57 262.713,272.07 258.5,269.5 Z"/></g>
<g><path style="opacity:0.169" fill="#acacac" d="M 345.5,268.5 C 345.262,270.404 344.262,271.738 342.5,272.5C 342.738,270.596 343.738,269.262 345.5,268.5 Z"/></g>
<g><path style="opacity:0.122" fill="#bbbbbb" d="M 99.5,269.5 C 99.2624,271.404 98.2624,272.738 96.5,273.5C 96.7376,271.596 97.7376,270.262 99.5,269.5 Z"/></g>
<g><path style="opacity:0.506" fill="#9e9e9e" d="M 107.5,269.5 C 110.118,271.452 112.452,273.785 114.5,276.5C 111.189,275.189 108.855,272.855 107.5,269.5 Z"/></g>
<g><path style="opacity:0.118" fill="#b1b1b1" d="M 223.5,269.5 C 223.262,271.404 222.262,272.738 220.5,273.5C 220.738,271.596 221.738,270.262 223.5,269.5 Z"/></g>
<g><path style="opacity:0.737" fill="#858585" d="M 351.5,271.5 C 354.427,272.757 356.761,274.757 358.5,277.5C 355.573,276.243 353.239,274.243 351.5,271.5 Z"/></g>
<g><path style="opacity:0.259" fill="#bbbbbb" d="M 471.5,269.5 C 472.906,269.973 473.573,270.973 473.5,272.5C 472.094,272.027 471.427,271.027 471.5,269.5 Z"/></g>
<g><path style="opacity:0.031" fill="#bfbfbf" d="M 230.5,271.5 C 231.5,271.833 232.167,272.5 232.5,273.5C 231.167,273.5 230.5,272.833 230.5,271.5 Z"/></g>
<g><path style="opacity:0.416" fill="#a1a1a1" d="M 309.5,271.5 C 306.829,273.118 303.829,273.785 300.5,273.5C 303.273,272.343 306.273,271.676 309.5,271.5 Z"/></g>
<g><path style="opacity:0.035" fill="#b6b6b6" d="M 462.5,273.5 C 465.235,272.179 466.902,273.179 467.5,276.5C 466.078,275.075 464.411,274.075 462.5,273.5 Z"/></g>
<g><path style="opacity:0.557" fill="#a8a8a8" d="M 473.5,272.5 C 475.262,273.262 476.262,274.596 476.5,276.5C 474.738,275.738 473.738,274.404 473.5,272.5 Z"/></g>
<g><path style="opacity:0.016" fill="#cdcdcd" d="M 232.5,273.5 C 233.5,273.833 234.167,274.5 234.5,275.5C 233.167,275.5 232.5,274.833 232.5,273.5 Z"/></g>
<g><path style="opacity:0.997" fill="#555555" d="M 340.5,274.5 C 339.738,276.262 338.404,277.262 336.5,277.5C 337.602,275.908 336.935,275.075 334.5,275C 336.473,274.505 338.473,274.338 340.5,274.5 Z"/></g>
<g><path style="opacity:0.984" fill="#666666" d="M 460.5,275.5 C 459.738,277.262 458.404,278.262 456.5,278.5C 456.678,275.255 458.011,274.255 460.5,275.5 Z"/></g>
<g><path style="opacity:0.02" fill="#cecece" d="M 462.5,273.5 C 462.5,274.833 461.833,275.5 460.5,275.5C 460.833,274.5 461.5,273.833 462.5,273.5 Z"/></g>
<g><path style="opacity:0.596" fill="#a1a1a1" d="M 365.5,274.5 C 367.5,275.833 369.167,277.5 370.5,279.5C 367.833,278.833 366.167,277.167 365.5,274.5 Z"/></g>
<g><path style="opacity:0.396" fill="#9c9c9c" d="M 29.5,274.5 C 31.1436,274.81 32.1436,275.81 32.5,277.5C 30.8564,277.19 29.8564,276.19 29.5,274.5 Z"/></g>
<g><path style="opacity:0.02" fill="#d3d3d3" d="M 95.5,274.5 C 95.5,276.5 94.5,277.5 92.5,277.5C 93.1667,276.167 94.1667,275.167 95.5,274.5 Z"/></g>
<g><path style="opacity:0.784" fill="#757575" d="M 123.5,275.5 C 124.833,276.167 125.833,277.167 126.5,278.5C 124.5,278.5 123.5,277.5 123.5,275.5 Z"/></g>
<g><path style="opacity:0.031" fill="#bbbbbb" d="M 220.5,273.5 C 219.415,275.587 217.749,276.92 215.5,277.5C 216.585,275.413 218.251,274.08 220.5,273.5 Z"/></g>
<g><path style="opacity:0.545" fill="#959595" d="M 234.5,275.5 C 236.404,275.738 237.738,276.738 238.5,278.5C 236.596,278.262 235.262,277.262 234.5,275.5 Z"/></g>
<g><path style="opacity:0.706" fill="#8a8a8a" d="M 467.5,276.5 C 470.089,277.419 472.089,279.086 473.5,281.5C 470.911,280.581 468.911,278.914 467.5,276.5 Z"/></g>
<g><path style="opacity:0.039" fill="#bebebe" d="M 476.5,276.5 C 478.027,276.427 479.027,277.094 479.5,278.5C 477.973,278.573 476.973,277.906 476.5,276.5 Z"/></g>
<g><path style="opacity:0.776" fill="#7e7e7e" d="M 32.5,277.5 C 35.0892,278.419 37.0892,280.086 38.5,282.5C 35.9108,281.581 33.9108,279.914 32.5,277.5 Z"/></g>
<g><path style="opacity:0.416" fill="#aaaaaa" d="M 114.5,276.5 C 116.404,276.738 117.738,277.738 118.5,279.5C 116.596,279.262 115.262,278.262 114.5,276.5 Z"/></g>
<g><path style="opacity:0.024" fill="#d2d2d2" d="M 92.5,277.5 C 92.5,278.833 91.8333,279.5 90.5,279.5C 90.8333,278.5 91.5,277.833 92.5,277.5 Z"/></g>
<g><path style="opacity:0.353" fill="#a3a3a3" d="M 215.5,277.5 C 214.341,279.25 212.674,280.25 210.5,280.5C 211.659,278.75 213.326,277.75 215.5,277.5 Z"/></g>
<g><path style="opacity:0.09" fill="#b8b8b8" d="M 336.5,277.5 C 334.948,280.112 332.614,281.445 329.5,281.5C 331.663,279.917 333.996,278.584 336.5,277.5 Z"/></g>
<g><path style="opacity:0.392" fill="#9d9d9d" d="M 358.5,277.5 C 360.027,277.427 361.027,278.094 361.5,279.5C 359.973,279.573 358.973,278.906 358.5,277.5 Z"/></g>
<g><path style="opacity:0.388" fill="#a4a4a4" d="M 448.5,277.5 C 447.008,280.323 444.674,281.99 441.5,282.5C 443.55,280.453 445.883,278.786 448.5,277.5 Z"/></g>
<g><path style="opacity:0.337" fill="#acacac" d="M 209.5,272.5 C 207.744,277.887 204.077,281.22 198.5,282.5C 202.775,279.858 206.442,276.525 209.5,272.5 Z"/></g>
<g><path style="opacity:0.267" fill="#bbbbbb" d="M 238.5,278.5 C 240.027,278.427 241.027,279.094 241.5,280.5C 239.973,280.573 238.973,279.906 238.5,278.5 Z"/></g>
<g><path style="opacity:0.263" fill="#b2b2b2" d="M 126.5,278.5 C 128.853,279.34 130.853,280.674 132.5,282.5C 129.802,282.155 127.802,280.822 126.5,278.5 Z"/></g>
<g><path style="opacity:0.847" fill="#8e8e8e" d="M 370.5,279.5 C 373.032,280.596 375.365,281.929 377.5,283.5C 374.318,283.416 371.985,282.083 370.5,279.5 Z"/></g>
<g><path style="opacity:0.078" fill="#c4c4c4" d="M 89.5,280.5 C 88.7377,282.262 87.4044,283.262 85.5,283.5C 86.2623,281.738 87.5956,280.738 89.5,280.5 Z"/></g>
<g><path style="opacity:0.886" fill="#767676" d="M 122.5,281.5 C 125.491,281.166 127.824,282.166 129.5,284.5C 126.843,284.065 124.509,283.065 122.5,281.5 Z"/></g>
<g><path style="opacity:0.125" fill="#cacaca" d="M 210.5,280.5 C 209.713,282.104 208.38,282.771 206.5,282.5C 207.514,281.326 208.847,280.66 210.5,280.5 Z"/></g>
<g><path style="opacity:0.839" fill="#818181" d="M 243.5,281.5 C 246.491,281.166 248.824,282.166 250.5,284.5C 247.843,284.065 245.509,283.065 243.5,281.5 Z"/></g>
<g><path style="opacity:0.855" fill="#797979" d="M 367.5,282.5 C 370.649,282.415 373.316,283.415 375.5,285.5C 372.351,285.585 369.684,284.585 367.5,282.5 Z"/></g>
<g><path style="opacity:0.38" fill="#9d9d9d" d="M 473.5,281.5 C 475.027,281.427 476.027,282.094 476.5,283.5C 474.973,283.573 473.973,282.906 473.5,281.5 Z"/></g>
<g><path style="opacity:0.204" fill="#b5b5b5" d="M 483.5,281.5 C 485.027,281.427 486.027,282.094 486.5,283.5C 484.973,283.573 483.973,282.906 483.5,281.5 Z"/></g>
<g><path style="opacity:0.435" fill="#9a9a9a" d="M 38.5,282.5 C 40.0269,282.427 41.0269,283.094 41.5,284.5C 39.9731,284.573 38.9731,283.906 38.5,282.5 Z"/></g>
<g><path style="opacity:0.224" fill="#bbbbbb" d="M 85.5,283.5 C 82.5191,286.488 78.8524,288.154 74.5,288.5C 77.9789,286.597 81.6456,284.93 85.5,283.5 Z"/></g>
<g><path style="opacity:0.69" fill="#707070" d="M 198.5,282.5 C 197.494,283.396 197.494,284.062 198.5,284.5C 197.833,285.167 197.167,285.833 196.5,286.5C 196.167,286.5 195.833,286.5 195.5,286.5C 193.901,286.768 192.568,286.434 191.5,285.5C 193.649,284.264 195.982,283.264 198.5,282.5 Z"/></g>
<g><path style="opacity:0.004" fill="#d2d2d2" d="M 204.5,283.5 C 202.208,285.267 199.542,286.267 196.5,286.5C 197.167,285.833 197.833,285.167 198.5,284.5C 200.5,284.167 202.5,283.833 204.5,283.5 Z"/></g>
<g><path style="opacity:0.627" fill="#9b9b9b" d="M 250.5,284.5 C 254.214,284.59 257.548,285.59 260.5,287.5C 256.838,287.277 253.505,286.277 250.5,284.5 Z"/></g>
<g><path style="opacity:0.224" fill="#b8b8b8" d="M 476.5,283.5 C 478.027,283.427 479.027,284.094 479.5,285.5C 477.973,285.573 476.973,284.906 476.5,283.5 Z"/></g>
<g><path style="opacity:0.671" fill="#919191" d="M 134.5,283.5 C 137.598,284.216 140.598,285.216 143.5,286.5C 142.432,287.434 141.099,287.768 139.5,287.5C 135.884,287.101 132.55,286.101 129.5,284.5C 131.869,284.851 134.203,285.018 136.5,285C 135.584,284.722 134.918,284.222 134.5,283.5 Z"/></g>
<g><path style="opacity:0.341" fill="#a8a8a8" d="M 327.5,282.5 C 326.158,283.793 324.491,284.626 322.5,285C 328.317,286.745 333.65,289.245 338.5,292.5C 332.262,289.975 325.928,287.642 319.5,285.5C 321.858,283.713 324.525,282.713 327.5,282.5 Z"/></g>
<g><path style="opacity:0.671" fill="#878787" d="M 456.5,278.5 C 449.928,283.112 442.594,286.112 434.5,287.5C 432.901,287.768 431.568,287.434 430.5,286.5C 434.162,285.168 437.828,283.835 441.5,282.5C 440.15,283.65 440.316,284.317 442,284.5C 446.912,282.625 451.745,280.625 456.5,278.5 Z"/></g>
<g><path style="opacity:0.369" fill="#9f9f9f" d="M 41.5,284.5 C 43.9674,284.755 45.9674,285.755 47.5,287.5C 45.0326,287.245 43.0326,286.245 41.5,284.5 Z"/></g>
<g><path style="opacity:0.553" fill="#888888" d="M 377.5,283.5 C 380.397,284.129 383.064,285.129 385.5,286.5C 384.791,287.404 383.791,287.737 382.5,287.5C 379.848,287.59 377.515,286.924 375.5,285.5C 377.993,285.869 378.66,285.203 377.5,283.5 Z"/></g>
<g><path style="opacity:0.804" fill="#898989" d="M 482.5,286.5 C 486.162,286.723 489.495,287.723 492.5,289.5C 488.786,289.41 485.452,288.41 482.5,286.5 Z"/></g>
<g><path style="opacity:0.337" fill="#9c9c9c" d="M 488.5,284.5 C 493.24,285.636 497.907,286.97 502.5,288.5C 502.5,289.833 501.833,290.5 500.5,290.5C 497.615,290.806 494.948,290.473 492.5,289.5C 494.857,289.663 497.19,289.497 499.5,289C 495.532,287.962 491.865,286.462 488.5,284.5 Z"/></g>
<g><path style="opacity:0.722" fill="#8d8d8d" d="M 47.5,287.5 C 50.1522,287.41 52.4855,288.076 54.5,289.5C 51.8478,289.59 49.5145,288.924 47.5,287.5 Z"/></g>
<g><path style="opacity:0.396" fill="#afafaf" d="M 191.5,285.5 C 192.568,286.434 193.901,286.768 195.5,286.5C 189.48,288.669 183.147,289.669 176.5,289.5C 181.255,287.675 186.255,286.342 191.5,285.5 Z"/></g>
<g><path style="opacity:0.184" fill="#c6c6c6" d="M 143.5,286.5 C 147.222,287.017 150.888,287.85 154.5,289C 149.257,289.694 144.257,289.194 139.5,287.5C 141.099,287.768 142.432,287.434 143.5,286.5 Z"/></g>
<g><path style="opacity:0.188" fill="#c5c5c5" d="M 385.5,286.5 C 389.553,287.013 393.553,287.846 397.5,289C 392.241,289.808 387.241,289.308 382.5,287.5C 383.791,287.737 384.791,287.404 385.5,286.5 Z"/></g>
<g><path style="opacity:0.216" fill="#c4c4c4" d="M 430.5,286.5 C 431.568,287.434 432.901,287.768 434.5,287.5C 429.41,289.242 424.077,289.742 418.5,289C 422.473,287.972 426.473,287.139 430.5,286.5 Z"/></g>
<g><path style="opacity:0.478" fill="#a3a3a3" d="M 74.5,288.5 C 70.7773,289.997 66.7773,290.663 62.5,290.5C 59.6445,290.497 56.9779,290.164 54.5,289.5C 61.1961,289.609 67.8627,289.276 74.5,288.5 Z"/></g>
<g><path style="opacity:0.012" fill="#fefffe" d="M 176.5,289.5 C 175.833,290.167 175.833,290.167 176.5,289.5 Z"/></g>
<g><path style="opacity:0.047" fill="#dbdbdb" d="M 502.5,288.5 C 503.404,289.209 503.737,290.209 503.5,291.5C 502.209,291.737 501.209,291.404 500.5,290.5C 501.833,290.5 502.5,289.833 502.5,288.5 Z"/></g>
<g><path style="opacity:0.204" fill="#b9b9b9" d="M 338.5,292.5 C 340.027,292.427 341.027,293.094 341.5,294.5C 339.973,294.573 338.973,293.906 338.5,292.5 Z"/></g>
<g><path style="opacity:0.804" fill="#7d7d7d" d="M 327.5,294.5 C 330.491,294.166 332.824,295.166 334.5,297.5C 331.843,297.065 329.509,296.065 327.5,294.5 Z"/></g>
<g><path style="opacity:0.024" fill="#afafaf" d="M 341.5,294.5 C 344.833,295.833 347.167,298.167 348.5,301.5C 345.833,299.5 343.5,297.167 341.5,294.5 Z"/></g>
<g><path style="opacity:0.475" fill="#a2a2a2" d="M 338.5,299.5 C 340.404,299.738 341.738,300.738 342.5,302.5C 340.596,302.262 339.262,301.262 338.5,299.5 Z"/></g>
<g><path style="opacity:0.027" fill="#b3b3b3" d="M 342.5,302.5 C 343.906,302.973 344.573,303.973 344.5,305.5C 343.094,305.027 342.427,304.027 342.5,302.5 Z"/></g>
<g><path style="opacity:0.243" fill="#b4b4b4" d="M 348.5,301.5 C 349.972,303.117 350.639,305.117 350.5,307.5C 350.489,309.045 350.156,310.378 349.5,311.5C 349.5,310.833 349.5,310.167 349.5,309.5C 349.167,306.833 348.833,304.167 348.5,301.5 Z"/></g>
<g><path style="opacity:0.706" fill="#7d7d7d" d="M 344.5,310.5 C 344.288,313.712 342.621,315.712 339.5,316.5C 341.196,314.475 342.863,312.475 344.5,310.5 Z"/></g>
<g><path style="opacity:1" fill="#2b2b2b" d="M 344.5,305.5 C 345.935,306.79 346.935,308.456 347.5,310.5C 348.183,310.137 348.85,309.804 349.5,309.5C 349.5,310.167 349.5,310.833 349.5,311.5C 349.573,313.027 348.906,314.027 347.5,314.5C 345.5,315.833 343.833,317.5 342.5,319.5C 336.079,322.189 329.746,324.855 323.5,327.5C 321.958,328.301 320.292,328.634 318.5,328.5C 314.152,328.909 309.819,329.076 305.5,329C 307.058,328.79 308.391,328.29 309.5,327.5C 313.122,327.678 316.456,327.011 319.5,325.5C 323.708,325.323 327.374,323.99 330.5,321.5C 332.181,319.992 334.181,318.992 336.5,318.5C 338.027,318.573 339.027,317.906 339.5,316.5C 342.621,315.712 344.288,313.712 344.5,310.5C 344.5,308.833 344.5,307.167 344.5,305.5 Z"/></g>
<g><path style="opacity:0.11" fill="#bdbdbd" d="M 347.5,314.5 C 346.833,317.167 345.167,318.833 342.5,319.5C 343.833,317.5 345.5,315.833 347.5,314.5 Z"/></g>
<g><path style="opacity:0.553" fill="#9b9b9b" d="M 339.5,316.5 C 339.027,317.906 338.027,318.573 336.5,318.5C 336.973,317.094 337.973,316.427 339.5,316.5 Z"/></g>
<g><path style="opacity:0.322" fill="#a6a6a6" d="M 342.5,319.5 C 336.907,323.705 330.573,326.371 323.5,327.5C 329.746,324.855 336.079,322.189 342.5,319.5 Z"/></g>
<g><path style="opacity:0.722" fill="#787878" d="M 330.5,321.5 C 327.374,323.99 323.708,325.323 319.5,325.5C 322.939,323.796 326.605,322.462 330.5,321.5 Z"/></g>
<g><path style="opacity:0.667" fill="#8e8e8e" d="M 319.5,325.5 C 316.456,327.011 313.122,327.678 309.5,327.5C 312.589,326.215 315.922,325.549 319.5,325.5 Z"/></g>
<g><path style="opacity:0.49" fill="#aaaaaa" d="M 309.5,327.5 C 308.391,328.29 307.058,328.79 305.5,329C 309.819,329.076 314.152,328.909 318.5,328.5C 309.403,330.537 300.07,331.37 290.5,331C 289.833,330.667 289.167,330.333 288.5,330C 295.478,328.919 302.478,328.086 309.5,327.5 Z"/></g>
</svg>
